<svg xmlns="http://www.w3.org/2000/svg" viewBox="0 0 1600 900" preserveAspectRatio="xMidYMid slice">
  <defs>
    <linearGradient id="g" x1="0" x2="1" y1="0" y2="1">
      <stop offset="0" stop-color="#4E3E2F"/>
      <stop offset="0.55" stop-color="#524435"/>
      <stop offset="1" stop-color="#F3DDB2"/>
    </linearGradient>
    <radialGradient id="r" cx="25%" cy="20%" r="70%">
      <stop offset="0" stop-color="#CEAA6A" stop-opacity="0.40"/>
      <stop offset="1" stop-color="#CEAA6A" stop-opacity="0"/>
    </radialGradient>
  </defs>
  <rect width="1600" height="900" fill="url(#g)"/>
  <rect width="1600" height="900" fill="url(#r)"/>
  <g opacity="0.18" stroke="#FCFBEE" stroke-width="2">
    <path d="M0,720 C220,680 420,760 620,710 C820,660 1040,730 1280,690 C1420,667 1520,640 1600,620" fill="none"/>
    <path d="M0,650 C260,610 480,690 700,640 C920,590 1120,660 1320,620 C1460,595 1540,575 1600,555" fill="none"/>
    <path d="M0,580 C240,540 500,610 720,570 C940,530 1120,590 1360,560 C1480,540 1560,520 1600,500" fill="none"/>
  </g>
</svg>
