<svg width="1200" height="800" viewBox="0 0 1200 800" fill="none" xmlns="http://www.w3.org/2000/svg">
  <rect width="1200" height="800" fill="#24201C"/>
  <g opacity="0.2">
    <path d="M0 100H1200" stroke="#A19D94" stroke-width="0.5"/>
    <path d="M0 200H1200" stroke="#A19D94" stroke-width="0.5"/>
    <path d="M0 300H1200" stroke="#A19D94" stroke-width="0.5"/>
    <path d="M0 400H1200" stroke="#A19D94" stroke-width="0.5"/>
    <path d="M0 500H1200" stroke="#A19D94" stroke-width="0.5"/>
    <path d="M0 600H1200" stroke="#A19D94" stroke-width="0.5"/>
    <path d="M0 700H1200" stroke="#A19D94" stroke-width="0.5"/>
    <path d="M100 0V800" stroke="#A19D94" stroke-width="0.5"/>
    <path d="M200 0V800" stroke="#A19D94" stroke-width="0.5"/>
    <path d="M300 0V800" stroke="#A19D94" stroke-width="0.5"/>
    <path d="M400 0V800" stroke="#A19D94" stroke-width="0.5"/>
    <path d="M500 0V800" stroke="#A19D94" stroke-width="0.5"/>
    <path d="M600 0V800" stroke="#A19D94" stroke-width="0.5"/>
    <path d="M700 0V800" stroke="#A19D94" stroke-width="0.5"/>
    <path d="M800 0V800" stroke="#A19D94" stroke-width="0.5"/>
    <path d="M900 0V800" stroke="#A19D94" stroke-width="0.5"/>
    <path d="M1000 0V800" stroke="#A19D94" stroke-width="0.5"/>
    <path d="M1100 0V800" stroke="#A19D94" stroke-width="0.5"/>
  </g>
  <path d="M200 200L500 200L500 500L200 500Z" fill="#CEAA6A" fill-opacity="0.1" stroke="#CEAA6A" stroke-width="2"/>
  <circle cx="350" cy="350" r="10" fill="#CEAA6A">
    <animate attributeName="r" values="8;12;8" dur="2s" repeatCount="indefinite" />
  </circle>
  <path d="M800 100L1000 300H600L800 100Z" fill="#A19D94" fill-opacity="0.1" stroke="#A19D94" stroke-width="1"/>
  <text x="50" y="750" fill="#CEAA6A" font-family="monospace" font-size="12">COORD_OFS: 24.7136, 46.6753</text>
  <text x="50" y="770" fill="#CEAA6A" font-family="monospace" font-size="12">ZONE: INDUSTRIAL_PRECINCT_P2</text>
</svg>
